<svg width="24" height="25" viewBox="0 0 24 25" fill="none" xmlns="http://www.w3.org/2000/svg">
<g id="FiAlertTriangle">
<path id="Vector (Stroke)" fill-rule="evenodd" clip-rule="evenodd" d="M10.529 2.95029C10.9782 2.69734 11.4852 2.56445 12.0008 2.56445C12.5164 2.56445 13.0233 2.69734 13.4725 2.95029C13.9218 3.20325 14.2983 3.56773 14.5658 4.00857L14.5686 4.01332L23.0386 18.1533L23.0467 18.1671C23.3087 18.6208 23.4473 19.1351 23.4488 19.6589C23.4502 20.1827 23.3145 20.6978 23.0551 21.1529C22.7957 21.608 22.4217 21.9873 21.9702 22.2529C21.5187 22.5186 21.0055 22.6614 20.4817 22.6671L20.4708 22.6673L3.51976 22.6672C2.99596 22.6614 2.48279 22.5186 2.03132 22.2529C1.57985 21.9873 1.20581 21.608 0.946403 21.1529C0.686999 20.6978 0.551279 20.1827 0.552746 19.6589C0.554213 19.1351 0.692815 18.6208 0.954763 18.1671L0.962886 18.1533L9.43289 4.01333L10.2907 4.52719L9.43575 4.00857C9.70316 3.56773 10.0797 3.20325 10.529 2.95029ZM11.147 5.04383L2.68344 19.173C2.59826 19.3228 2.55322 19.4921 2.55274 19.6645C2.55225 19.8391 2.59749 20.0108 2.68396 20.1625C2.77043 20.3142 2.89511 20.4406 3.0456 20.5292C3.19477 20.617 3.36415 20.6645 3.53715 20.6672H20.4644C20.6374 20.6645 20.8067 20.617 20.9559 20.5292C21.1064 20.4406 21.2311 20.3142 21.3175 20.1625C21.404 20.0108 21.4493 19.8391 21.4488 19.6645C21.4483 19.4921 21.4033 19.3229 21.3181 19.1731L12.8558 5.04583C12.8554 5.04516 12.8549 5.0445 12.8545 5.04383C12.7655 4.89778 12.6404 4.777 12.4914 4.69307C12.3416 4.60875 12.1726 4.56445 12.0008 4.56445C11.8289 4.56445 11.6599 4.60875 11.5102 4.69307C11.3611 4.777 11.236 4.89778 11.147 5.04383Z" fill="#E53E3E"/>
<path id="Vector (Stroke)_2" fill-rule="evenodd" clip-rule="evenodd" d="M12 8.66699C12.5523 8.66699 13 9.11471 13 9.66699V13.667C13 14.2193 12.5523 14.667 12 14.667C11.4477 14.667 11 14.2193 11 13.667V9.66699C11 9.11471 11.4477 8.66699 12 8.66699Z" fill="#E53E3E"/>
<path id="Vector (Stroke)_3" fill-rule="evenodd" clip-rule="evenodd" d="M11 17.667C11 17.1147 11.4477 16.667 12 16.667H12.01C12.5623 16.667 13.01 17.1147 13.01 17.667C13.01 18.2193 12.5623 18.667 12.01 18.667H12C11.4477 18.667 11 18.2193 11 17.667Z" fill="#E53E3E"/>
</g>
</svg>
