<svg width="24" height="24" viewBox="0 0 24 24" fill="none" xmlns="http://www.w3.org/2000/svg">
<path d="M2.00002 12H4.00002C3.99764 10.9487 4.20286 9.90729 4.6039 8.93549C5.00494 7.9637 5.59391 7.08064 6.33702 6.337C7.06482 5.60679 7.92835 5.02589 8.87902 4.627C10.8385 3.81293 13.0388 3.79822 15.009 4.586C15.0283 5.23347 15.2993 5.8479 15.7645 6.29868C16.2296 6.74947 16.8523 7.00107 17.5 7C18.886 7 20 5.886 20 4.5C20 3.114 18.886 2 17.5 2C16.811 2 16.188 2.276 15.737 2.725C13.306 1.752 10.514 1.767 8.10202 2.784C6.91316 3.2837 5.83304 4.01023 4.92202 4.923C4.00884 5.8335 3.28195 6.91331 2.78202 8.102C2.26322 9.33594 1.99731 10.6614 2.00002 12ZM19.373 15.122C18.972 16.074 18.396 16.93 17.663 17.663C16.93 18.396 16.074 18.972 15.121 19.373C13.1615 20.1871 10.9612 20.2018 8.99102 19.414C8.97176 18.7665 8.70074 18.1521 8.23557 17.7013C7.77041 17.2505 7.14777 16.9989 6.50002 17C5.11402 17 4.00002 18.114 4.00002 19.5C4.00002 20.886 5.11402 22 6.50002 22C7.18902 22 7.81202 21.724 8.26302 21.275C9.45053 21.7546 10.7193 22.0007 12 22C13.9666 22.0038 15.8904 21.4267 17.5302 20.3411C19.1699 19.2555 20.4525 17.7098 21.217 15.898C21.7365 14.6642 22.0028 13.3387 22 12H20C20.0025 13.0722 19.7893 14.1339 19.373 15.122Z" fill="#A0AEC0"/>
<path d="M11.9989 7.46191C9.49694 7.46191 7.46094 9.49791 7.46094 11.9999C7.46094 14.5019 9.49694 16.5379 11.9989 16.5379C14.5009 16.5379 16.5369 14.5019 16.5369 11.9999C16.5369 9.49791 14.5009 7.46191 11.9989 7.46191ZM11.9989 14.5379C10.5999 14.5379 9.46094 13.3989 9.46094 11.9999C9.46094 10.6009 10.5999 9.46191 11.9989 9.46191C13.3979 9.46191 14.5369 10.6009 14.5369 11.9999C14.5369 13.3989 13.3979 14.5379 11.9989 14.5379Z" fill="#A0AEC0"/>
</svg>
