<svg width="18" height="18" viewBox="0 0 18 18" fill="none" xmlns="http://www.w3.org/2000/svg">
<g id="FiX">
<path id="Vector (Stroke)" fill-rule="evenodd" clip-rule="evenodd" d="M14.0303 3.96967C14.3232 4.26256 14.3232 4.73744 14.0303 5.03033L5.03033 14.0303C4.73744 14.3232 4.26256 14.3232 3.96967 14.0303C3.67678 13.7374 3.67678 13.2626 3.96967 12.9697L12.9697 3.96967C13.2626 3.67678 13.7374 3.67678 14.0303 3.96967Z" fill="#A0AEC0"/>
<path id="Vector (Stroke)_2" fill-rule="evenodd" clip-rule="evenodd" d="M3.96967 3.96967C4.26256 3.67678 4.73744 3.67678 5.03033 3.96967L14.0303 12.9697C14.3232 13.2626 14.3232 13.7374 14.0303 14.0303C13.7374 14.3232 13.2626 14.3232 12.9697 14.0303L3.96967 5.03033C3.67678 4.73744 3.67678 4.26256 3.96967 3.96967Z" fill="#A0AEC0"/>
</g>
</svg>
