<svg width="24" height="24" viewBox="0 0 24 24" fill="none" xmlns="http://www.w3.org/2000/svg">
<path d="M14.6839 14.8278C14.3184 15.1922 13.8866 15.4834 13.4119 15.6858C12.5572 16.0467 11.6037 16.0993 10.7144 15.8349C9.8252 15.5704 9.05547 15.0051 8.53691 14.2358L6.87891 15.3548C7.31134 15.993 7.8615 16.5428 8.49991 16.9748C9.14956 17.4142 9.87949 17.721 10.6479 17.8778C11.8369 18.1199 13.0713 17.9979 14.1899 17.5278C14.9018 17.2257 15.5492 16.7898 16.0969 16.2438C16.3689 15.9728 16.6169 15.6728 16.8309 15.3548L15.1729 14.2358C15.0286 14.4479 14.8649 14.6461 14.6839 14.8278Z" fill="#A0AEC0"/>
<path d="M12 2C6.486 2 2 6.486 2 12C2 17.514 6.486 22 12 22C17.514 22 22 17.514 22 12C22 6.486 17.514 2 12 2ZM12 4C14.953 4 17.531 5.613 18.918 8H5.082C6.469 5.613 9.047 4 12 4ZM12 20C7.589 20 4 16.411 4 12C4 11.309 4.098 10.641 4.264 10H5V11C5 11.5304 5.21071 12.0391 5.58579 12.4142C5.96086 12.7893 6.46957 13 7 13H9C9.53043 13 10.0391 12.7893 10.4142 12.4142C10.7893 12.0391 11 11.5304 11 11H13C13 11.5304 13.2107 12.0391 13.5858 12.4142C13.9609 12.7893 14.4696 13 15 13H17C17.5304 13 18.0391 12.7893 18.4142 12.4142C18.7893 12.0391 19 11.5304 19 11V10H19.736C19.902 10.641 20 11.309 20 12C20 16.411 16.411 20 12 20Z" fill="#A0AEC0"/>
</svg>
