<svg width="16" height="16" viewBox="0 0 16 16" fill="none" xmlns="http://www.w3.org/2000/svg">
<path d="M8.54709 7.99992C8.54736 8.1363 8.52068 8.27139 8.46858 8.39743C8.41648 8.52347 8.34 8.63798 8.24351 8.73437L4.50625 12.4716C4.37568 12.598 4.20066 12.668 4.01894 12.6666C3.83723 12.6651 3.66337 12.5922 3.53487 12.4637C3.40637 12.3352 3.33353 12.1614 3.33205 11.9797C3.33058 11.798 3.40059 11.6229 3.52698 11.4924L6.9501 8.06925C6.95922 8.06015 6.96646 8.04935 6.97139 8.03745C6.97633 8.02555 6.97887 8.0128 6.97887 7.99992C6.97887 7.98704 6.97633 7.97428 6.97139 7.96239C6.96646 7.95049 6.95922 7.93968 6.9501 7.93059L3.52698 4.50747C3.40059 4.3769 3.33058 4.20188 3.33205 4.02017C3.33353 3.83845 3.40637 3.66459 3.53487 3.53609C3.66337 3.40759 3.83723 3.33475 4.01894 3.33327C4.20066 3.3318 4.37568 3.40181 4.50625 3.5282L8.24351 7.26547C8.34 7.36186 8.41648 7.47637 8.46858 7.60241C8.52068 7.72844 8.54736 7.86354 8.54709 7.99992Z" fill="white"/>
<path d="M12.5292 7.99992C12.5294 8.1363 12.5028 8.27139 12.4507 8.39743C12.3986 8.52347 12.3221 8.63798 12.2256 8.73437L8.48834 12.4716C8.35777 12.598 8.18275 12.668 8.00103 12.6666C7.81931 12.6651 7.64546 12.5922 7.51696 12.4637C7.38846 12.3352 7.31562 12.1614 7.31414 11.9797C7.31267 11.798 7.38268 11.6229 7.50907 11.4924L10.9322 8.06925C10.9413 8.06015 10.9485 8.04935 10.9535 8.03745C10.9584 8.02555 10.961 8.0128 10.961 7.99992C10.961 7.98704 10.9584 7.97428 10.9535 7.96239C10.9485 7.95049 10.9413 7.93968 10.9322 7.93059L7.50907 4.50747C7.38268 4.3769 7.31267 4.20188 7.31414 4.02017C7.31562 3.83845 7.38846 3.66459 7.51696 3.53609C7.64546 3.40759 7.81931 3.33475 8.00103 3.33327C8.18275 3.3318 8.35777 3.40181 8.48834 3.5282L12.2256 7.26547C12.3221 7.36186 12.3986 7.47637 12.4507 7.60241C12.5028 7.72844 12.5294 7.86354 12.5292 7.99992Z" fill="white"/>
</svg>
