<svg width="24" height="24" viewBox="0 0 24 24" fill="none" xmlns="http://www.w3.org/2000/svg">
<path d="M11.001 10H13.001V15H11.001V10ZM11 16H13V18H11V16Z" fill="#A0AEC0"/>
<path d="M13.7689 4.20018C13.4209 3.54518 12.7429 3.13818 12.0009 3.13818C11.2589 3.13818 10.5809 3.54518 10.2329 4.20118L2.89493 18.0642C2.73209 18.3686 2.65143 18.7102 2.6609 19.0553C2.67037 19.4005 2.76964 19.7371 2.94893 20.0322C3.12562 20.3286 3.37657 20.5737 3.67697 20.7435C3.97738 20.9133 4.31687 21.0017 4.66193 21.0002H19.3399C20.0479 21.0002 20.6889 20.6382 21.0539 20.0322C21.2329 19.737 21.332 19.4004 21.3415 19.0553C21.351 18.7103 21.2705 18.3687 21.1079 18.0642L13.7689 4.20018ZM4.66193 19.0002L12.0009 5.13718L19.3449 19.0002H4.66193Z" fill="#A0AEC0"/>
</svg>
