<svg width="18" height="19" viewBox="0 0 18 19" fill="none" xmlns="http://www.w3.org/2000/svg">
<g id="FiExternalLink">
<path id="Vector (Stroke)" fill-rule="evenodd" clip-rule="evenodd" d="M3.75 5.58325C3.55109 5.58325 3.36032 5.66227 3.21967 5.80292C3.07902 5.94357 3 6.13434 3 6.33325V14.5833C3 14.7822 3.07902 14.9729 3.21967 15.1136C3.36032 15.2542 3.55109 15.3333 3.75 15.3333H12C12.1989 15.3333 12.3897 15.2542 12.5303 15.1136C12.671 14.9729 12.75 14.7822 12.75 14.5833V10.0833C12.75 9.66904 13.0858 9.33325 13.5 9.33325C13.9142 9.33325 14.25 9.66904 14.25 10.0833V14.5833C14.25 15.18 14.0129 15.7523 13.591 16.1742C13.169 16.5962 12.5967 16.8333 12 16.8333H3.75C3.15326 16.8333 2.58097 16.5962 2.15901 16.1742C1.73705 15.7523 1.5 15.18 1.5 14.5833V6.33325C1.5 5.73652 1.73705 5.16422 2.15901 4.74226C2.58097 4.3203 3.15326 4.08325 3.75 4.08325H8.25C8.66421 4.08325 9 4.41904 9 4.83325C9 5.24747 8.66421 5.58325 8.25 5.58325H3.75Z" fill="#A0AEC0"/>
<path id="Vector (Stroke)_2" fill-rule="evenodd" clip-rule="evenodd" d="M10.5 2.58325C10.5 2.16904 10.8358 1.83325 11.25 1.83325H15.75C16.1642 1.83325 16.5 2.16904 16.5 2.58325V7.08325C16.5 7.49747 16.1642 7.83325 15.75 7.83325C15.3358 7.83325 15 7.49747 15 7.08325V3.33325H11.25C10.8358 3.33325 10.5 2.99747 10.5 2.58325Z" fill="#A0AEC0"/>
<path id="Vector (Stroke)_3" fill-rule="evenodd" clip-rule="evenodd" d="M16.2803 2.05292C16.5732 2.34582 16.5732 2.82069 16.2803 3.11358L8.03033 11.3636C7.73744 11.6565 7.26256 11.6565 6.96967 11.3636C6.67678 11.0707 6.67678 10.5958 6.96967 10.3029L15.2197 2.05292C15.5126 1.76003 15.9874 1.76003 16.2803 2.05292Z" fill="#A0AEC0"/>
</g>
</svg>
