<svg width="38" height="242" viewBox="0 0 38 242" fill="none" xmlns="http://www.w3.org/2000/svg">
<g id="Group 22">
<g id="Group 16">
<rect id="Rectangle 1471" x="20" y="182" width="2" height="2" transform="rotate(-180 20 182)" fill="#5C72FA" fill-opacity="0.05"/>
<rect id="Rectangle 1472" x="20" y="164" width="2" height="2" transform="rotate(-180 20 164)" fill="#5C72FA" fill-opacity="0.2"/>
<rect id="Rectangle 1473" x="20" y="146" width="2" height="2" transform="rotate(-180 20 146)" fill="#5C72FA" fill-opacity="0.4"/>
<rect id="Rectangle 1474" x="20" y="128" width="2" height="2" transform="rotate(-180 20 128)" fill="#5C72FA" fill-opacity="0.6"/>
<rect id="Rectangle 1475" x="20" y="110" width="2" height="2" transform="rotate(-180 20 110)" fill="#5C72FA" fill-opacity="0.8"/>
<rect id="Rectangle 1476" x="20" y="92" width="2" height="2" transform="rotate(-180 20 92)" fill="#5C72FA"/>
<rect id="Rectangle 1477" x="20" y="74" width="2" height="2" transform="rotate(-180 20 74)" fill="#5C72FA" fill-opacity="0.8"/>
<rect id="Rectangle 1478" x="20" y="56" width="2" height="2" transform="rotate(-180 20 56)" fill="#5C72FA" fill-opacity="0.6"/>
<rect id="Rectangle 1479" x="20" y="38" width="2" height="2" transform="rotate(-180 20 38)" fill="#5C72FA" fill-opacity="0.4"/>
<rect id="Rectangle 1480" x="20" y="20" width="2" height="2" transform="rotate(-180 20 20)" fill="#5C72FA" fill-opacity="0.2"/>
<rect id="Rectangle 1481" x="20" y="2" width="2" height="2" transform="rotate(-180 20 2)" fill="#5C72FA" fill-opacity="0.05"/>
</g>
<g id="Group 17">
<rect id="Rectangle 1471_2" x="2" y="212" width="2" height="2" transform="rotate(-180 2 212)" fill="#5C72FA" fill-opacity="0.05"/>
<rect id="Rectangle 1472_2" x="2" y="194" width="2" height="2" transform="rotate(-180 2 194)" fill="#5C72FA" fill-opacity="0.2"/>
<rect id="Rectangle 1473_2" x="2" y="176" width="2" height="2" transform="rotate(-180 2 176)" fill="#5C72FA" fill-opacity="0.4"/>
<rect id="Rectangle 1474_2" x="2" y="158" width="2" height="2" transform="rotate(-180 2 158)" fill="#5C72FA" fill-opacity="0.6"/>
<rect id="Rectangle 1475_2" x="2" y="140" width="2" height="2" transform="rotate(-180 2 140)" fill="#5C72FA" fill-opacity="0.8"/>
<rect id="Rectangle 1476_2" x="2" y="122" width="2" height="2" transform="rotate(-180 2 122)" fill="#5C72FA"/>
<rect id="Rectangle 1477_2" x="2" y="104" width="2" height="2" transform="rotate(-180 2 104)" fill="#5C72FA" fill-opacity="0.8"/>
<rect id="Rectangle 1478_2" x="2" y="86" width="2" height="2" transform="rotate(-180 2 86)" fill="#5C72FA" fill-opacity="0.6"/>
<rect id="Rectangle 1479_2" x="2" y="68" width="2" height="2" transform="rotate(-180 2 68)" fill="#5C72FA" fill-opacity="0.4"/>
<rect id="Rectangle 1480_2" x="2" y="50" width="2" height="2" transform="rotate(-180 2 50)" fill="#5C72FA" fill-opacity="0.2"/>
<rect id="Rectangle 1481_2" x="2" y="32" width="2" height="2" transform="rotate(-180 2 32)" fill="#5C72FA" fill-opacity="0.05"/>
</g>
<g id="Group 15">
<rect id="Rectangle 1471_3" x="38" y="242" width="2" height="2" transform="rotate(-180 38 242)" fill="#5C72FA" fill-opacity="0.05"/>
<rect id="Rectangle 1472_3" x="38" y="224" width="2" height="2" transform="rotate(-180 38 224)" fill="#5C72FA" fill-opacity="0.2"/>
<rect id="Rectangle 1473_3" x="38" y="206" width="2" height="2" transform="rotate(-180 38 206)" fill="#5C72FA" fill-opacity="0.4"/>
<rect id="Rectangle 1474_3" x="38" y="188" width="2" height="2" transform="rotate(-180 38 188)" fill="#5C72FA" fill-opacity="0.6"/>
<rect id="Rectangle 1475_3" x="38" y="170" width="2" height="2" transform="rotate(-180 38 170)" fill="#5C72FA" fill-opacity="0.8"/>
<rect id="Rectangle 1476_3" x="38" y="152" width="2" height="2" transform="rotate(-180 38 152)" fill="#5C72FA"/>
<rect id="Rectangle 1477_3" x="38" y="134" width="2" height="2" transform="rotate(-180 38 134)" fill="#5C72FA" fill-opacity="0.8"/>
<rect id="Rectangle 1478_3" x="38" y="116" width="2" height="2" transform="rotate(-180 38 116)" fill="#5C72FA" fill-opacity="0.6"/>
<rect id="Rectangle 1479_3" x="38" y="98" width="2" height="2" transform="rotate(-180 38 98)" fill="#5C72FA" fill-opacity="0.4"/>
<rect id="Rectangle 1480_3" x="38" y="80" width="2" height="2" transform="rotate(-180 38 80)" fill="#5C72FA" fill-opacity="0.2"/>
<rect id="Rectangle 1481_3" x="38" y="62" width="2" height="2" transform="rotate(-180 38 62)" fill="#5C72FA" fill-opacity="0.05"/>
</g>
</g>
</svg>
