<svg width="38" height="242" viewBox="0 0 38 242" fill="none" xmlns="http://www.w3.org/2000/svg">
<g id="Group 23">
<g id="Group 16">
<rect id="Rectangle 1471" width="2" height="2" transform="matrix(1 -8.74228e-08 -8.74228e-08 -1 18 182)" fill="#5C72FA" fill-opacity="0.05"/>
<rect id="Rectangle 1472" width="2" height="2" transform="matrix(1 -8.74228e-08 -8.74228e-08 -1 18 164)" fill="#5C72FA" fill-opacity="0.2"/>
<rect id="Rectangle 1473" width="2" height="2" transform="matrix(1 -8.74228e-08 -8.74228e-08 -1 18 146)" fill="#5C72FA" fill-opacity="0.4"/>
<rect id="Rectangle 1474" width="2" height="2" transform="matrix(1 -8.74228e-08 -8.74228e-08 -1 18 128)" fill="#5C72FA" fill-opacity="0.6"/>
<rect id="Rectangle 1475" width="2" height="2" transform="matrix(1 -8.74228e-08 -8.74228e-08 -1 18 110)" fill="#5C72FA" fill-opacity="0.8"/>
<rect id="Rectangle 1476" width="2" height="2" transform="matrix(1 -8.74228e-08 -8.74228e-08 -1 18 92)" fill="#5C72FA"/>
<rect id="Rectangle 1477" width="2" height="2" transform="matrix(1 -8.74228e-08 -8.74228e-08 -1 18 74)" fill="#5C72FA" fill-opacity="0.8"/>
<rect id="Rectangle 1478" width="2" height="2" transform="matrix(1 -8.74228e-08 -8.74228e-08 -1 18 56)" fill="#5C72FA" fill-opacity="0.6"/>
<rect id="Rectangle 1479" width="2" height="2" transform="matrix(1 -8.74228e-08 -8.74228e-08 -1 18 38)" fill="#5C72FA" fill-opacity="0.4"/>
<rect id="Rectangle 1480" width="2" height="2" transform="matrix(1 -8.74228e-08 -8.74228e-08 -1 18 20)" fill="#5C72FA" fill-opacity="0.2"/>
<rect id="Rectangle 1481" width="2" height="2" transform="matrix(1 -8.74228e-08 -8.74228e-08 -1 18 2)" fill="#5C72FA" fill-opacity="0.05"/>
</g>
<g id="Group 17">
<rect id="Rectangle 1471_2" width="2" height="2" transform="matrix(1 -8.74228e-08 -8.74228e-08 -1 36 212)" fill="#5C72FA" fill-opacity="0.05"/>
<rect id="Rectangle 1472_2" width="2" height="2" transform="matrix(1 -8.74228e-08 -8.74228e-08 -1 36 194)" fill="#5C72FA" fill-opacity="0.2"/>
<rect id="Rectangle 1473_2" width="2" height="2" transform="matrix(1 -8.74228e-08 -8.74228e-08 -1 36 176)" fill="#5C72FA" fill-opacity="0.4"/>
<rect id="Rectangle 1474_2" width="2" height="2" transform="matrix(1 -8.74228e-08 -8.74228e-08 -1 36 158)" fill="#5C72FA" fill-opacity="0.6"/>
<rect id="Rectangle 1475_2" width="2" height="2" transform="matrix(1 -8.74228e-08 -8.74228e-08 -1 36 140)" fill="#5C72FA" fill-opacity="0.8"/>
<rect id="Rectangle 1476_2" width="2" height="2" transform="matrix(1 -8.74228e-08 -8.74228e-08 -1 36 122)" fill="#5C72FA"/>
<rect id="Rectangle 1477_2" width="2" height="2" transform="matrix(1 -8.74228e-08 -8.74228e-08 -1 36 104)" fill="#5C72FA" fill-opacity="0.8"/>
<rect id="Rectangle 1478_2" width="2" height="2" transform="matrix(1 -8.74228e-08 -8.74228e-08 -1 36 86)" fill="#5C72FA" fill-opacity="0.6"/>
<rect id="Rectangle 1479_2" width="2" height="2" transform="matrix(1 -8.74228e-08 -8.74228e-08 -1 36 68)" fill="#5C72FA" fill-opacity="0.4"/>
<rect id="Rectangle 1480_2" width="2" height="2" transform="matrix(1 -8.74228e-08 -8.74228e-08 -1 36 50)" fill="#5C72FA" fill-opacity="0.2"/>
<rect id="Rectangle 1481_2" width="2" height="2" transform="matrix(1 -8.74228e-08 -8.74228e-08 -1 36 32)" fill="#5C72FA" fill-opacity="0.05"/>
</g>
<g id="Group 15">
<rect id="Rectangle 1471_3" width="2" height="2" transform="matrix(1 -8.74228e-08 -8.74228e-08 -1 0 242)" fill="#5C72FA" fill-opacity="0.05"/>
<rect id="Rectangle 1472_3" width="2" height="2" transform="matrix(1 -8.74228e-08 -8.74228e-08 -1 0 224)" fill="#5C72FA" fill-opacity="0.2"/>
<rect id="Rectangle 1473_3" width="2" height="2" transform="matrix(1 -8.74228e-08 -8.74228e-08 -1 0 206)" fill="#5C72FA" fill-opacity="0.4"/>
<rect id="Rectangle 1474_3" width="2" height="2" transform="matrix(1 -8.74228e-08 -8.74228e-08 -1 0 188)" fill="#5C72FA" fill-opacity="0.6"/>
<rect id="Rectangle 1475_3" width="2" height="2" transform="matrix(1 -8.74228e-08 -8.74228e-08 -1 0 170)" fill="#5C72FA" fill-opacity="0.8"/>
<rect id="Rectangle 1476_3" width="2" height="2" transform="matrix(1 -8.74228e-08 -8.74228e-08 -1 0 152)" fill="#5C72FA"/>
<rect id="Rectangle 1477_3" width="2" height="2" transform="matrix(1 -8.74228e-08 -8.74228e-08 -1 0 134)" fill="#5C72FA" fill-opacity="0.8"/>
<rect id="Rectangle 1478_3" width="2" height="2" transform="matrix(1 -8.74228e-08 -8.74228e-08 -1 0 116)" fill="#5C72FA" fill-opacity="0.6"/>
<rect id="Rectangle 1479_3" width="2" height="2" transform="matrix(1 -8.74228e-08 -8.74228e-08 -1 0 98)" fill="#5C72FA" fill-opacity="0.4"/>
<rect id="Rectangle 1480_3" width="2" height="2" transform="matrix(1 -8.74228e-08 -8.74228e-08 -1 0 80)" fill="#5C72FA" fill-opacity="0.2"/>
<rect id="Rectangle 1481_3" width="2" height="2" transform="matrix(1 -8.74228e-08 -8.74228e-08 -1 0 62)" fill="#5C72FA" fill-opacity="0.05"/>
</g>
</g>
</svg>
