<svg width="26" height="26" viewBox="0 0 26 26" fill="none" xmlns="http://www.w3.org/2000/svg">
<path d="M13 23.5C10.2152 23.5 7.54451 22.3938 5.57538 20.4246C3.60625 18.4555 2.5 15.7848 2.5 13C2.5 10.2152 3.60625 7.54451 5.57538 5.57538C7.54451 3.60625 10.2152 2.5 13 2.5C15.7848 2.5 18.4555 3.60625 20.4246 5.57538C22.3938 7.54451 23.5 10.2152 23.5 13C23.5 15.7848 22.3938 18.4555 20.4246 20.4246C18.4555 22.3938 15.7848 23.5 13 23.5ZM13 25C16.1826 25 19.2348 23.7357 21.4853 21.4853C23.7357 19.2348 25 16.1826 25 13C25 9.8174 23.7357 6.76516 21.4853 4.51472C19.2348 2.26428 16.1826 1 13 1C9.8174 1 6.76516 2.26428 4.51472 4.51472C2.26428 6.76516 1 9.8174 1 13C1 16.1826 2.26428 19.2348 4.51472 21.4853C6.76516 23.7357 9.8174 25 13 25Z" fill="#171923" stroke="#171923"/>
<path d="M8.88313 9.679C8.88108 9.72744 8.88896 9.77579 8.90628 9.82107C8.9236 9.86636 8.95 9.90762 8.98386 9.94232C9.01772 9.97703 9.05832 10.0044 9.10317 10.0229C9.14801 10.0413 9.19615 10.0504 9.24463 10.0495H10.4821C10.6891 10.0495 10.8541 9.88 10.8811 9.6745C11.0161 8.6905 11.6911 7.9735 12.8941 7.9735C13.9231 7.9735 14.8651 8.488 14.8651 9.7255C14.8651 10.678 14.3041 11.116 13.4176 11.782C12.4081 12.5155 11.6086 13.372 11.6656 14.7625L11.6701 15.088C11.6717 15.1864 11.7119 15.2803 11.7821 15.3493C11.8522 15.4183 11.9467 15.457 12.0451 15.457H13.2616C13.3611 15.457 13.4565 15.4175 13.5268 15.3472C13.5971 15.2768 13.6366 15.1815 13.6366 15.082V14.9245C13.6366 13.8475 14.0461 13.534 15.1516 12.6955C16.0651 12.001 17.0176 11.23 17.0176 9.6115C17.0176 7.345 15.1036 6.25 13.0081 6.25C11.1076 6.25 9.02563 7.135 8.88313 9.679ZM11.2186 18.3235C11.2186 19.123 11.8561 19.714 12.7336 19.714C13.6471 19.714 14.2756 19.123 14.2756 18.3235C14.2756 17.4955 13.6456 16.9135 12.7321 16.9135C11.8561 16.9135 11.2186 17.4955 11.2186 18.3235Z" fill="#171923"/>
</svg>