<svg width="17" height="17" viewBox="0 0 17 17" fill="none" xmlns="http://www.w3.org/2000/svg">
<g id="FiInfo">
<path id="Vector (Stroke)" fill-rule="evenodd" clip-rule="evenodd" d="M8.49935 2.33333C5.18564 2.33333 2.49935 5.01962 2.49935 8.33333C2.49935 11.647 5.18564 14.3333 8.49935 14.3333C11.8131 14.3333 14.4993 11.647 14.4993 8.33333C14.4993 5.01962 11.8131 2.33333 8.49935 2.33333ZM1.16602 8.33333C1.16602 4.28325 4.44926 1 8.49935 1C12.5494 1 15.8327 4.28325 15.8327 8.33333C15.8327 12.3834 12.5494 15.6667 8.49935 15.6667C4.44926 15.6667 1.16602 12.3834 1.16602 8.33333Z" fill="#A0AEC0"/>
<path id="Vector (Stroke)_2" fill-rule="evenodd" clip-rule="evenodd" d="M8.50065 7.6665C8.86884 7.6665 9.16732 7.96498 9.16732 8.33317V10.9998C9.16732 11.368 8.86884 11.6665 8.50065 11.6665C8.13246 11.6665 7.83398 11.368 7.83398 10.9998V8.33317C7.83398 7.96498 8.13246 7.6665 8.50065 7.6665Z" fill="#A0AEC0"/>
<path id="Vector (Stroke)_3" fill-rule="evenodd" clip-rule="evenodd" d="M7.83398 5.66667C7.83398 5.29848 8.13246 5 8.50065 5H8.50732C8.87551 5 9.17398 5.29848 9.17398 5.66667C9.17398 6.03486 8.87551 6.33333 8.50732 6.33333H8.50065C8.13246 6.33333 7.83398 6.03486 7.83398 5.66667Z" fill="#A0AEC0"/>
</g>
</svg>
