<svg width="110" height="38" viewBox="0 0 110 38" fill="none" xmlns="http://www.w3.org/2000/svg">
<g id="Layer 1">
<g id="Group">
<g id="Group_2">
<path id="Vector" d="M54.5463 8.5886H47.7755V26.9186H46.1097V8.5886H39.3516V7.1825H54.5463V8.5886Z" fill="#171923"/>
<path id="Vector_2" d="M60.8025 27.2165C59.5484 27.2165 58.421 26.9061 57.4266 26.2918C56.4322 25.6774 55.6278 24.816 55.0768 23.7202C54.5131 22.6245 54.2344 21.3894 54.2344 20.034V19.4513C54.2344 18.0451 54.5067 16.7784 55.0578 15.6446C55.6088 14.5109 56.3625 13.6242 57.3379 12.9844C58.3133 12.3511 59.3774 12.009 60.5112 12.009C62.2973 12.009 63.7034 12.6107 64.7485 13.8268C65.7936 15.0429 66.3066 16.7087 66.3066 18.8179V19.7236H55.8305V20.034C55.8305 21.6998 56.3119 23.0869 57.2556 24.1826C58.2183 25.2974 59.4154 25.8484 60.8595 25.8484C61.7336 25.8484 62.4873 25.6964 63.1587 25.367C63.8301 25.0567 64.4255 24.5436 64.9765 23.8406L65.9899 24.6133C64.8245 26.3424 63.089 27.2228 60.8089 27.2228L60.8025 27.2165ZM60.5112 13.3771C59.2951 13.3771 58.2627 13.8205 57.4266 14.7136C56.5842 15.6066 56.0902 16.8037 55.9002 18.3175H64.6978V18.1465C64.6471 16.7404 64.2544 15.594 63.4944 14.7009C62.7407 13.8078 61.7463 13.3835 60.5112 13.3835V13.3771Z" fill="#171923"/>
<path id="Vector_3" d="M71.1074 25.5696H80.6398V26.9441H69.0996V25.7407L77.9986 13.6684H69.372V12.2623H80.0381V13.4784L71.1011 25.5696H71.1074Z" fill="#171923"/>
<path id="Vector_4" d="M82.9766 19.3753C82.9766 17.9692 83.2489 16.7024 83.7999 15.5687C84.351 14.4349 85.1174 13.5609 86.1118 12.9275C87.1062 12.2941 88.2399 11.9838 89.5067 11.9838C91.4639 11.9838 93.041 12.6678 94.2571 14.0423C95.4731 15.4167 96.0749 17.2345 96.0749 19.4957V19.8377C96.0749 21.2628 95.8025 22.5295 95.2515 23.6633C94.7004 24.797 93.934 25.6711 92.9396 26.2855C91.9452 26.8999 90.8115 27.2102 89.5447 27.2102C87.6066 27.2102 86.0104 26.5262 84.7944 25.1517C83.5783 23.7773 82.9766 21.9595 82.9766 19.6983V19.3753ZM84.6043 19.825C84.6043 21.5731 85.0667 23.0172 85.9598 24.1447C86.8655 25.2784 88.0499 25.8231 89.5257 25.8231C91.0015 25.8231 92.1859 25.2594 93.0916 24.1447C93.9974 23.0109 94.4471 21.5351 94.4471 19.6857V19.3753C94.4471 18.2606 94.2444 17.2345 93.8327 16.2908C93.421 15.366 92.8383 14.644 92.0846 14.1309C91.3308 13.6179 90.4758 13.3582 89.513 13.3582C88.0753 13.3582 86.8909 13.9219 85.9661 15.0557C85.0604 16.1894 84.5917 17.6779 84.5917 19.5147L84.6107 19.825H84.6043Z" fill="#171923"/>
<path id="Vector_5" d="M108.216 23.2007C108.216 22.3963 107.893 21.744 107.241 21.2626C106.588 20.7812 105.632 20.3885 104.308 20.1162C102.991 19.8438 101.996 19.5145 101.274 19.1724C100.552 18.8114 100.02 18.3807 99.678 17.8677C99.336 17.3546 99.146 16.7339 99.146 15.9992C99.146 14.8338 99.6273 13.89 100.603 13.1363C101.565 12.3826 102.813 12.0026 104.321 12.0026C105.948 12.0026 107.272 12.4143 108.267 13.2187C109.261 14.023 109.761 15.0871 109.761 16.3919H108.134C108.134 15.5368 107.773 14.8148 107.051 14.2511C106.328 13.6874 105.423 13.396 104.327 13.396C103.231 13.396 102.408 13.6367 101.755 14.0991C101.103 14.5804 100.78 15.1948 100.78 15.9485C100.78 16.7022 101.052 17.2533 101.584 17.646C102.117 18.0387 103.111 18.4187 104.536 18.7607C105.961 19.1028 107.025 19.4448 107.741 19.8248C108.444 20.2048 108.976 20.6672 109.318 21.1992C109.66 21.7313 109.831 22.3837 109.831 23.1374C109.831 24.3725 109.331 25.3669 108.336 26.1016C107.342 26.8363 106.037 27.2164 104.428 27.2164C102.712 27.2164 101.325 26.8047 100.28 25.9813C99.2156 25.1579 98.6836 24.1128 98.6836 22.846H100.311C100.381 23.7898 100.774 24.5245 101.515 25.0565C102.25 25.5886 103.231 25.8483 104.447 25.8483C105.581 25.8483 106.487 25.5886 107.19 25.1135C107.874 24.6005 108.216 23.9671 108.216 23.2071V23.2007Z" fill="#171923"/>
<path id="Vector_6" d="M27.3653 28.0334C26.9726 21.0536 18.194 17.8803 17.3516 17.5573C17.3199 17.5383 17.3199 17.5066 17.3326 17.4686L26.3836 8.37962V7.40421C26.3836 7.2522 26.2442 7.11286 26.0922 7.11286H9.40899V1.64679V0L3.25253 1.28576V2.2105H3.59456C3.59456 2.2105 5.102 2.2105 5.102 3.71794V7.09386H0.338981C0.250308 7.09386 0.167969 7.18253 0.167969 7.26487V9.40569H5.121V21.0472C5.121 24.7018 7.47084 27.2353 11.5878 26.8933C12.4619 26.8236 13.2663 26.4816 13.9567 26.0383C14.267 25.8356 14.457 25.5062 14.457 25.1325V23.9861C13.1206 24.8792 11.9868 24.8285 11.9868 24.8285C9.37732 24.8285 9.43432 21.5159 9.43432 21.5159V9.41203H21.4369L12.7976 18.121C12.7786 19.2674 12.7659 20.1605 12.7659 20.1795C12.7659 20.2112 12.7849 20.2302 12.8166 20.2302C20.7402 21.5666 22.881 26.697 22.881 28.1854C22.881 28.1854 23.736 35.4376 16.4838 35.938C16.4838 35.938 11.7335 36.1407 10.8911 34.2405C10.8594 34.1709 10.8911 34.1012 10.9608 34.0695C11.7525 33.7085 12.2782 33.0054 12.2782 32.0617C12.2782 30.6556 11.4231 29.5092 9.618 29.5092C8.16123 29.5092 6.9578 30.6556 6.9578 32.0617C6.9578 32.0617 6.27375 38.1675 16.4585 37.9965C28.0874 37.7938 27.3653 28.0334 27.3653 28.0334Z" fill="#171923"/>
</g>
</g>
</g>
</svg>
