<svg width="24" height="24" viewBox="0 0 24 24" fill="none" xmlns="http://www.w3.org/2000/svg">
<path d="M12 2.00004C10.6863 1.99655 9.38489 2.25362 8.17116 2.75638C6.95743 3.25914 5.85546 3.9976 4.929 4.92903C3.04 6.81804 2 9.33004 2 12C2 14.67 3.04 17.182 4.929 19.071C6.818 20.96 9.33 22 12 22C14.67 22 17.182 20.96 19.071 19.071C20.96 17.182 22 14.67 22 12C22 9.33004 20.96 6.81804 19.071 4.92903C18.1445 3.9976 17.0426 3.25914 15.8288 2.75638C14.6151 2.25362 13.3137 1.99655 12 2.00004ZM17.657 17.657C16.146 19.168 14.137 20 12 20C9.863 20 7.854 19.168 6.343 17.657C4.832 16.146 4 14.137 4 12C4 9.86304 4.832 7.85404 6.343 6.34304C7.59671 5.08467 9.23673 4.28385 11 4.06903V12C11 12.2653 11.1054 12.5196 11.2929 12.7071C11.4804 12.8947 11.7348 13 12 13H19.931C19.7162 14.7633 18.9154 16.4033 17.657 17.657ZM13 11V4.06203C14.7638 4.28011 16.4035 5.08325 17.657 6.34304C18.9175 7.59606 19.7207 9.23603 19.938 11H13Z" fill="#A0AEC0"/>
</svg>
