<svg width="14" height="17" viewBox="0 0 14 17" fill="none" xmlns="http://www.w3.org/2000/svg">
<path d="M4.67911 10.8661C4.96711 10.8661 5.23711 10.8481 5.48911 10.8121C5.74111 10.7641 5.98111 10.7101 6.20911 10.6501V11.8741C5.98111 11.9581 5.70511 12.0301 5.38111 12.0901C5.06911 12.1501 4.72711 12.1801 4.35511 12.1801C3.79111 12.1801 3.30511 12.0841 2.89711 11.8921C2.48911 11.6881 2.17711 11.3701 1.96111 10.9381C1.75711 10.4941 1.65511 9.91212 1.65511 9.19212V3.59412H0.287109V2.83812L1.72711 2.24412L2.30311 0.120117H3.23911V2.33412H6.02911V3.59412H3.23911V9.12012C3.23911 9.70812 3.35911 10.1461 3.59911 10.4341C3.85111 10.7221 4.21111 10.8661 4.67911 10.8661ZM13.5351 2.33412V3.41412L9.25111 7.93212C10.3551 7.98012 11.2491 8.17812 11.9331 8.52612C12.6171 8.86212 13.1151 9.32412 13.4271 9.91212C13.7391 10.5001 13.8951 11.1961 13.8951 12.0001C13.9071 12.8401 13.7211 13.5901 13.3371 14.2501C12.9651 14.9101 12.4251 15.4201 11.7171 15.7801C11.0091 16.1521 10.1571 16.3321 9.16111 16.3201C8.50111 16.3201 7.88911 16.2661 7.32511 16.1581C6.76111 16.0501 6.23911 15.8941 5.75911 15.6901V14.2321C6.31111 14.4961 6.86311 14.6881 7.41511 14.8081C7.97911 14.9281 8.53111 14.9881 9.07111 14.9881C9.79111 14.9881 10.3851 14.8561 10.8531 14.5921C11.3331 14.3281 11.6871 13.9681 11.9151 13.5121C12.1551 13.0561 12.2751 12.5341 12.2751 11.9461C12.2751 11.3581 12.1431 10.8601 11.8791 10.4521C11.6271 10.0441 11.2251 9.73212 10.6731 9.51612C10.1211 9.28812 9.38911 9.17412 8.47711 9.17412H7.39711V7.98612L11.5371 3.59412H6.02911V2.33412H13.5351Z" fill="#171923"/>
</svg>
