<svg width="24" height="24" viewBox="0 0 24 24" fill="none" xmlns="http://www.w3.org/2000/svg">
<path fill-rule="evenodd" clip-rule="evenodd" d="M4.5 7.5C3.67157 7.5 3 8.17157 3 9V18C3 18.8284 3.67157 19.5 4.5 19.5H19.5C20.3284 19.5 21 18.8284 21 18V9C21 8.17157 20.3284 7.5 19.5 7.5H4.5ZM1.5 9C1.5 7.34315 2.84315 6 4.5 6H19.5C21.1569 6 22.5 7.34315 22.5 9V18C22.5 19.6569 21.1569 21 19.5 21H4.5C2.84315 21 1.5 19.6569 1.5 18V9Z" fill="white"/>
<path fill-rule="evenodd" clip-rule="evenodd" d="M16.3672 2.30399C16.812 2.22037 17.2698 2.23537 17.7083 2.34797C18.1493 2.46122 18.5598 2.67039 18.9106 2.96057C19.2614 3.25075 19.5439 3.61478 19.7378 4.02668C19.9317 4.43859 20.0324 4.88822 20.0325 5.34349V6.74998H18.5325V5.34397C18.5325 5.34389 18.5325 5.34405 18.5325 5.34397C18.5324 5.10952 18.4806 4.87773 18.3807 4.66562C18.2808 4.45342 18.1353 4.26589 17.9546 4.11641C17.7738 3.96692 17.5624 3.85917 17.3352 3.80083C17.108 3.74249 16.8708 3.735 16.6404 3.77891L16.6262 3.78147L4.28898 5.88717C3.92699 5.9577 3.60059 6.1516 3.36549 6.43592C3.12901 6.72192 2.99975 7.08149 3 7.45259L3 9.74998H1.5V7.45333C1.5 7.45325 1.5 7.4534 1.5 7.45333C1.49963 6.73312 1.75054 6.03512 2.20949 5.48007C2.66854 4.92489 3.30695 4.54731 4.0146 4.41246L4.02882 4.40989L16.3672 2.30399Z" fill="white"/>
<path d="M17.25 15C16.9533 15 16.6633 14.912 16.4166 14.7472C16.17 14.5824 15.9777 14.3481 15.8642 14.074C15.7506 13.7999 15.7209 13.4983 15.7788 13.2074C15.8367 12.9164 15.9796 12.6491 16.1893 12.4393C16.3991 12.2296 16.6664 12.0867 16.9574 12.0288C17.2483 11.9709 17.5499 12.0006 17.824 12.1142C18.0981 12.2277 18.3324 12.42 18.4972 12.6666C18.662 12.9133 18.75 13.2033 18.75 13.5C18.75 13.8978 18.592 14.2794 18.3107 14.5607C18.0294 14.842 17.6478 15 17.25 15Z" fill="white"/>
</svg>
