<svg width="14" height="17" viewBox="0 0 14 17" fill="none" xmlns="http://www.w3.org/2000/svg">
<path d="M4.68 11.5325C4.968 11.5325 5.238 11.5145 5.49 11.4785C5.742 11.4305 5.982 11.3765 6.21 11.3165V12.5405C5.982 12.6245 5.706 12.6965 5.382 12.7565C5.07 12.8165 4.728 12.8465 4.356 12.8465C3.792 12.8465 3.306 12.7505 2.898 12.5585C2.49 12.3545 2.178 12.0365 1.962 11.6045C1.758 11.1605 1.656 10.5785 1.656 9.8585V4.2605H0.288V3.5045L1.728 2.9105L2.304 0.786503H3.24V3.0005H6.03V4.2605H3.24V9.7865C3.24 10.3745 3.36 10.8125 3.6 11.1005C3.852 11.3885 4.212 11.5325 4.68 11.5325ZM13.536 3.0005V4.0805L9.252 8.5985C10.356 8.6465 11.25 8.8445 11.934 9.1925C12.618 9.5285 13.116 9.9905 13.428 10.5785C13.74 11.1665 13.896 11.8625 13.896 12.6665C13.908 13.5065 13.722 14.2565 13.338 14.9165C12.966 15.5765 12.426 16.0865 11.718 16.4465C11.01 16.8185 10.158 16.9985 9.162 16.9865C8.502 16.9865 7.89 16.9325 7.326 16.8245C6.762 16.7165 6.24 16.5605 5.76 16.3565V14.8985C6.312 15.1625 6.864 15.3545 7.416 15.4745C7.98 15.5945 8.532 15.6545 9.072 15.6545C9.792 15.6545 10.386 15.5225 10.854 15.2585C11.334 14.9945 11.688 14.6345 11.916 14.1785C12.156 13.7225 12.276 13.2005 12.276 12.6125C12.276 12.0245 12.144 11.5265 11.88 11.1185C11.628 10.7105 11.226 10.3985 10.674 10.1825C10.122 9.9545 9.39 9.8405 8.478 9.8405H7.398V8.6525L11.538 4.2605H6.03V3.0005H13.536Z" fill="#4A5568"/>
</svg>
