<svg width="24" height="25" viewBox="0 0 24 25" fill="none" xmlns="http://www.w3.org/2000/svg">
<g id="FiInfo">
<path id="Vector (Stroke)" fill-rule="evenodd" clip-rule="evenodd" d="M12 3.33325C7.02944 3.33325 3 7.36269 3 12.3333C3 17.3038 7.02944 21.3333 12 21.3333C16.9706 21.3333 21 17.3038 21 12.3333C21 7.36269 16.9706 3.33325 12 3.33325ZM1 12.3333C1 6.25812 5.92487 1.33325 12 1.33325C18.0751 1.33325 23 6.25812 23 12.3333C23 18.4084 18.0751 23.3333 12 23.3333C5.92487 23.3333 1 18.4084 1 12.3333Z" fill="#0052FF"/>
<path id="Vector (Stroke)_2" fill-rule="evenodd" clip-rule="evenodd" d="M12 11.3333C12.5523 11.3333 13 11.781 13 12.3333V16.3333C13 16.8855 12.5523 17.3333 12 17.3333C11.4477 17.3333 11 16.8855 11 16.3333V12.3333C11 11.781 11.4477 11.3333 12 11.3333Z" fill="#0052FF"/>
<path id="Vector (Stroke)_3" fill-rule="evenodd" clip-rule="evenodd" d="M11 8.33325C11 7.78097 11.4477 7.33325 12 7.33325H12.01C12.5623 7.33325 13.01 7.78097 13.01 8.33325C13.01 8.88554 12.5623 9.33325 12.01 9.33325H12C11.4477 9.33325 11 8.88554 11 8.33325Z" fill="#0052FF"/>
</g>
</svg>
